<svg width="185" height="68" viewBox="0 0 185 68" fill="none" xmlns="http://www.w3.org/2000/svg">
<rect width="185" height="67.78" rx="15" fill="#EAF5FF"/>
<path d="M37.8594 28.9479C37.8272 28.5213 37.7386 28.147 37.5938 27.825C37.4489 27.495 37.2436 27.2173 36.978 26.9919C36.7124 26.7585 36.3823 26.5855 35.9879 26.4728C35.6016 26.352 35.1468 26.2917 34.6236 26.2917C33.4967 26.2917 32.4704 26.5613 31.5447 27.1006C30.6191 27.6399 29.8423 28.4167 29.2145 29.4309C28.5947 30.4451 28.1681 31.6685 27.9347 33.1013C27.6932 34.5502 27.6731 35.7898 27.8743 36.8201C28.0755 37.8504 28.5102 38.6392 29.1783 39.1865C29.8544 39.7339 30.768 40.0076 31.919 40.0076C32.9493 40.0076 33.8388 39.8587 34.5874 39.5608C35.3359 39.263 35.9356 38.8404 36.3864 38.2931C36.8371 37.7457 37.1188 37.1018 37.2315 36.3613L38.3906 36.482H32.7401L33.5128 31.7007H44.4759L43.9205 35.1297C43.5502 37.3835 42.7533 39.3113 41.5298 40.9131C40.3144 42.5069 38.8011 43.7303 36.9901 44.5836C35.179 45.4287 33.1908 45.8513 31.0256 45.8513C28.6269 45.8513 26.6025 45.3402 24.9524 44.3179C23.3023 43.2957 22.1231 41.8388 21.4148 39.9472C20.7145 38.0556 20.5777 35.8059 21.0043 33.1979C21.3423 31.1534 21.9541 29.3423 22.8395 27.7647C23.733 26.187 24.8236 24.8549 26.1115 23.7682C27.3994 22.6735 28.8201 21.8485 30.3736 21.2931C31.9271 20.7296 33.5369 20.4479 35.2031 20.4479C36.66 20.4479 37.9841 20.6572 39.1754 21.0757C40.3667 21.4863 41.3849 22.0738 42.2301 22.8385C43.0753 23.5952 43.7071 24.4926 44.1257 25.531C44.5523 26.5694 44.7254 27.7083 44.6449 28.9479H37.8594ZM54.2949 45.8513C52.2826 45.8513 50.6245 45.4529 49.3205 44.656C48.0246 43.8511 47.115 42.7322 46.5918 41.2995C46.0686 39.8587 45.964 38.1884 46.2779 36.2888C46.5918 34.3892 47.2478 32.723 48.2459 31.2902C49.244 29.8494 50.5279 28.7306 52.0975 27.9337C53.6671 27.1288 55.4621 26.7263 57.4824 26.7263C59.4867 26.7263 61.1368 27.1288 62.4327 27.9337C63.7367 28.7306 64.6503 29.8494 65.1735 31.2902C65.7047 32.723 65.8134 34.3892 65.4995 36.2888C65.1855 38.1884 64.5255 39.8587 63.5194 41.2995C62.5132 42.7322 61.2253 43.8511 59.6557 44.656C58.0942 45.4529 56.3072 45.8513 54.2949 45.8513ZM55.1159 40.9252C55.6955 40.9252 56.2227 40.736 56.6976 40.3577C57.1806 39.9794 57.5911 39.4401 57.9292 38.7398C58.2753 38.0395 58.5288 37.2064 58.6898 36.2405C58.8508 35.2666 58.8749 34.4335 58.7623 33.7412C58.6496 33.0409 58.4161 32.5016 58.062 32.1233C57.7078 31.745 57.2409 31.5559 56.6614 31.5559C56.0819 31.5559 55.5506 31.745 55.0676 32.1233C54.5847 32.5016 54.1742 33.0409 53.8361 33.7412C53.498 34.4335 53.2485 35.2666 53.0875 36.2405C52.9266 37.2064 52.8984 38.0395 53.003 38.7398C53.1157 39.4401 53.3491 39.9794 53.7033 40.3577C54.0655 40.736 54.5364 40.9252 55.1159 40.9252Z" fill="#00889A"/>
<path d="M66.562 45.5132L70.6671 20.786H81.3887C83.2722 20.786 84.8136 21.0395 86.013 21.5466C87.2203 22.0537 88.0736 22.7701 88.5726 23.6958C89.0797 24.6214 89.2286 25.7121 89.0194 26.9678C88.8584 27.8693 88.5123 28.6944 87.981 29.4429C87.4578 30.1835 86.7937 30.8113 85.9888 31.3265C85.1919 31.8336 84.3025 32.1837 83.3205 32.3769L83.2722 32.6184C84.3347 32.6506 85.2604 32.9162 86.0492 33.4152C86.838 33.9062 87.4176 34.5904 87.7878 35.4678C88.1581 36.3371 88.2466 37.3513 88.0534 38.5104C87.8281 39.8627 87.2767 41.066 86.3993 42.1205C85.522 43.1749 84.383 44.004 82.9824 44.6077C81.5819 45.2114 79.9881 45.5132 78.2012 45.5132H66.562ZM74.1926 40.1524H77.3319C78.4426 40.1524 79.316 39.9391 79.9519 39.5125C80.5958 39.0859 80.9782 38.4621 81.0989 37.6411C81.1955 37.0615 81.1472 36.5705 80.954 36.1681C80.7608 35.7656 80.4348 35.4597 79.976 35.2505C79.5172 35.0412 78.9417 34.9365 78.2495 34.9365H75.0137L74.1926 40.1524ZM75.7381 30.7831H78.4909C79.0705 30.7831 79.6017 30.6906 80.0847 30.5054C80.5676 30.3203 80.9661 30.0506 81.28 29.6965C81.5939 29.3423 81.7911 28.9157 81.8716 28.4167C81.9924 27.6439 81.8072 27.0563 81.3162 26.6539C80.8333 26.2514 80.1813 26.0502 79.3603 26.0502H76.5108L75.7381 30.7831ZM94.4888 45.803C93.3136 45.803 92.3034 45.6098 91.4583 45.2235C90.6212 44.8291 90.0094 44.2334 89.623 43.4365C89.2447 42.6316 89.1602 41.6174 89.3695 40.3939C89.5385 39.3797 89.8565 38.5144 90.3233 37.798C90.7902 37.0817 91.3697 36.4941 92.062 36.0353C92.7542 35.5765 93.531 35.2263 94.3922 34.9848C95.2615 34.7353 96.1792 34.5743 97.1451 34.5019C98.1915 34.4214 99.0407 34.3208 99.6926 34.2C100.345 34.0793 100.832 33.9143 101.154 33.705C101.476 33.4957 101.669 33.214 101.733 32.8598V32.8115C101.806 32.3286 101.677 31.9583 101.347 31.7007C101.025 31.4432 100.574 31.3144 99.9945 31.3144C99.3667 31.3144 98.8233 31.4512 98.3645 31.7249C97.9138 31.9986 97.6039 32.4252 97.4348 33.0047H91.3013C91.5589 31.8778 92.0861 30.8395 92.883 29.8897C93.6879 28.9318 94.7544 28.1671 96.0826 27.5956C97.4187 27.0161 99.0125 26.7263 100.864 26.7263C102.184 26.7263 103.343 26.8833 104.341 27.1972C105.339 27.5031 106.164 27.9337 106.816 28.4891C107.476 29.0364 107.939 29.6804 108.205 30.4209C108.478 31.1534 108.543 31.9503 108.398 32.8115L106.273 45.5132H100.043L100.477 42.9053H100.333C99.8496 43.5975 99.3063 44.1569 98.7026 44.5836C98.1069 45.0102 97.455 45.3201 96.7466 45.5132C96.0463 45.7064 95.2937 45.803 94.4888 45.803ZM97.3865 41.6013C97.8856 41.6013 98.3766 41.4967 98.8596 41.2874C99.3425 41.0781 99.757 40.7763 100.103 40.3819C100.449 39.9874 100.671 39.5085 100.767 38.9451L101.009 37.3996C100.832 37.4721 100.634 37.5405 100.417 37.6049C100.208 37.6612 99.9864 37.7176 99.753 37.7739C99.5276 37.8302 99.2862 37.8826 99.0286 37.9309C98.7791 37.9792 98.5215 38.0274 98.2559 38.0757C97.7246 38.1562 97.2779 38.289 96.9157 38.4742C96.5534 38.6513 96.2717 38.8726 96.0705 39.1382C95.8693 39.3958 95.7445 39.6856 95.6962 40.0076C95.6238 40.5147 95.7405 40.9091 96.0463 41.1908C96.3603 41.4645 96.807 41.6013 97.3865 41.6013ZM109.699 45.5132L110.278 41.8428L119.986 32.1354L120.034 32.0388H112.21L113.08 26.9678H128.776L128.148 31.0246L119.213 40.3456L119.165 40.4422H126.844L126.023 45.5132H109.699ZM134.797 45.803C133.622 45.803 132.612 45.6098 131.767 45.2235C130.93 44.8291 130.318 44.2334 129.932 43.4365C129.553 42.6316 129.469 41.6174 129.678 40.3939C129.847 39.3797 130.165 38.5144 130.632 37.798C131.099 37.0817 131.678 36.4941 132.371 36.0353C133.063 35.5765 133.84 35.2263 134.701 34.9848C135.57 34.7353 136.488 34.5743 137.454 34.5019C138.5 34.4214 139.349 34.3208 140.001 34.2C140.653 34.0793 141.14 33.9143 141.462 33.705C141.784 33.4957 141.977 33.214 142.042 32.8598V32.8115C142.114 32.3286 141.985 31.9583 141.655 31.7007C141.333 31.4432 140.883 31.3144 140.303 31.3144C139.675 31.3144 139.132 31.4512 138.673 31.7249C138.222 31.9986 137.912 32.4252 137.743 33.0047H131.61C131.867 31.8778 132.395 30.8395 133.192 29.8897C133.997 28.9318 135.063 28.1671 136.391 27.5956C137.727 27.0161 139.321 26.7263 141.172 26.7263C142.492 26.7263 143.652 26.8833 144.65 27.1972C145.648 27.5031 146.473 27.9337 147.125 28.4891C147.785 29.0364 148.248 29.6804 148.513 30.4209C148.787 31.1534 148.851 31.9503 148.707 32.8115L146.582 45.5132H140.351L140.786 42.9053H140.641C140.158 43.5975 139.615 44.1569 139.011 44.5836C138.416 45.0102 137.764 45.3201 137.055 45.5132C136.355 45.7064 135.602 45.803 134.797 45.803ZM137.695 41.6013C138.194 41.6013 138.685 41.4967 139.168 41.2874C139.651 41.0781 140.066 40.7763 140.412 40.3819C140.758 39.9874 140.979 39.5085 141.076 38.9451L141.317 37.3996C141.14 37.4721 140.943 37.5405 140.726 37.6049C140.516 37.6612 140.295 37.7176 140.062 37.7739C139.836 37.8302 139.595 37.8826 139.337 37.9309C139.088 37.9792 138.83 38.0274 138.564 38.0757C138.033 38.1562 137.586 38.289 137.224 38.4742C136.862 38.6513 136.58 38.8726 136.379 39.1382C136.178 39.3958 136.053 39.6856 136.005 40.0076C135.932 40.5147 136.049 40.9091 136.355 41.1908C136.669 41.4645 137.116 41.6013 137.695 41.6013ZM149.766 45.5132L152.857 26.9678H159.328L158.749 30.4934H158.942C159.498 29.1894 160.194 28.2355 161.031 27.6319C161.868 27.0282 162.782 26.7263 163.772 26.7263C164.061 26.7263 164.339 26.7505 164.605 26.7988C164.878 26.839 165.148 26.8953 165.414 26.9678L164.448 32.6667C164.134 32.5459 163.743 32.4614 163.277 32.4131C162.81 32.3568 162.395 32.3286 162.033 32.3286C161.389 32.3286 160.785 32.4775 160.222 32.7753C159.667 33.0651 159.192 33.4756 158.797 34.0069C158.411 34.5301 158.153 35.1458 158.025 35.8542L156.431 45.5132H149.766Z" fill="#0085FF"/>
</svg>
